# xmcd
#
# Track frame offsets: 
#        150
#        16061
#        30864
#        53025
#        67721
#        85102
#        94588
#        113608
#        128652
#        141543
#        160610
#        178175
#
# Disc length: 2592 seconds
#
# Revision: 1
# Processed by: cddbd v1.5.2PL0 Copyright (c) Steve Scherf et al.
# Submitted via: ExactAudioCopy v1.0b3
#
DISCID=850a1e0c
DTITLE=Jondo - Pure [CD)
DYEAR=09
DGENRE=
TTITLE0=Little Closer (Radio Edit)
TTITLE1=Good Girl (Radio Edit)
TTITLE2=Ten Million Miles (Radio Edit)
TTITLE3=Jah Children (Radio Edit)
TTITLE4=Teardrops (Radio Edit)
TTITLE5=Where Am I (Radio Edit)
TTITLE6=Corrupted Minds (Radio Edit)
TTITLE7=Stranger In This Land (Radio Edit)
TTITLE8=Reasons (Radio Edit)
TTITLE9=Sometimes (Radio Edit)
TTITLE10=Good Girls (Jondo Remix)
TTITLE11=Little Closer (Don Krutscho Mix)
EXTD=
EXTT0=
EXTT1=
EXTT2=
EXTT3=
EXTT4=
EXTT5=
EXTT6=
EXTT7=
EXTT8=
EXTT9=
EXTT10=
EXTT11=
PLAYORDER=
